<svg xmlns="http://www.w3.org/2000/svg" xmlns:xlink="http://www.w3.org/1999/xlink" contentStyleType="text/css" data-diagram-type="DESCRIPTION" height="1223px" preserveAspectRatio="none" style="width:1239px;height:1223px;background:#FFFFFF;" version="1.1" viewBox="0 0 1239 1223" width="1239px" zoomAndPan="magnify"><defs/><g><!--cluster Life Link Blood Donation App--><g class="cluster" data-entity="Life Link Blood Donation App" data-source-line="14" data-uid="ent0005" id="cluster_Life Link Blood Donation App"><rect fill="none" height="977" rx="2.5" ry="2.5" style="stroke:#181818;stroke-width:1;" width="1109" x="124" y="-44.5012"/><text fill="#000000" font-family="sans-serif" font-size="14" font-weight="bold" lengthAdjust="spacing" textLength="211.1279" x="572.936" y="-28.966">Life Link Blood Donation App</text></g><!--entity User--><g class="entity" data-entity="User" data-source-line="10" data-uid="ent0002" id="entity_User"><ellipse cx="50.3345" cy="605.4988" fill="#F1F1F1" rx="16" ry="16" style="stroke:#181818;stroke-width:0.5;"/><path d="M50.3345,625.4988 C54.3345,625.4988 57.3345,625.4988 61.3345,621.4988 C69.3345,621.4988 77.3345,629.4988 77.3345,637.4988 L77.3345,641.4988 C77.3345,645.4988 73.3345,649.4988 69.3345,649.4988 L31.3345,649.4988 C27.3345,649.4988 23.3345,645.4988 23.3345,641.4988 L23.3345,637.4988 C23.3345,629.4988 31.3345,621.4988 39.3345,621.4988 C43.3345,625.4988 46.3345,625.4988 50.3345,625.4988" fill="#F1F1F1" style="stroke:#181818;stroke-width:0.5;"/><text fill="#000000" font-family="sans-serif" font-size="14" lengthAdjust="spacing" textLength="88.6689" x="6" y="663.534">Donor / User</text></g><!--entity Admin--><g class="entity" data-entity="Admin" data-source-line="11" data-uid="ent0003" id="entity_Admin"><ellipse cx="50.5" cy="65.4988" fill="#F1F1F1" rx="16" ry="16" style="stroke:#181818;stroke-width:0.5;"/><path d="M50.5,85.4988 C54.5,85.4988 57.5,85.4988 61.5,81.4988 C69.5,81.4988 77.5,89.4988 77.5,97.4988 L77.5,101.4988 C77.5,105.4988 73.5,109.4988 69.5,109.4988 L31.5,109.4988 C27.5,109.4988 23.5,105.4988 23.5,101.4988 L23.5,97.4988 C23.5,89.4988 31.5,81.4988 39.5,81.4988 C43.5,85.4988 46.5,85.4988 50.5,85.4988" fill="#F1F1F1" style="stroke:#181818;stroke-width:0.5;"/><text fill="#000000" font-family="sans-serif" font-size="14" lengthAdjust="spacing" textLength="44.2764" x="28.3618" y="123.534">Admin</text></g><!--entity System--><g class="entity" data-entity="System" data-source-line="12" data-uid="ent0004" id="entity_System"><ellipse cx="584.915" cy="-129.5129" fill="#F1F1F1" rx="16" ry="16" style="stroke:#181818;stroke-width:0.5;"/><path d="M584.915,-109.5129 C588.915,-109.5129 591.915,-109.5129 595.915,-113.5129 C603.915,-113.5129 611.915,-105.5129 611.915,-97.5129 L611.915,-93.5129 C611.915,-89.5129 607.915,-85.5129 603.915,-85.5129 L565.915,-85.5129 C561.915,-85.5129 557.915,-89.5129 557.915,-93.5129 L557.915,-97.5129 C557.915,-105.5129 565.915,-113.5129 573.915,-113.5129 C577.915,-109.5129 580.915,-109.5129 584.915,-109.5129" fill="#F1F1F1" style="stroke:#181818;stroke-width:0.5;"/><text fill="#000000" font-family="sans-serif" font-size="14" lengthAdjust="spacing" textLength="56.5605" x="541.5" y="-71.4777">Firebase</text><text fill="#000000" font-family="sans-serif" font-size="14" lengthAdjust="spacing" textLength="86.8301" x="541.5" y="-54.9894">(Auth / FCM)</text><text fill="#000000" font-family="sans-serif" font-size="14" font-style="italic" lengthAdjust="spacing" textLength="62.3643" x="553.7329" y="-148.966">&#171;system&#187;</text></g><!--entity UC1--><g class="entity" data-entity="UC1" data-source-line="17" data-uid="ent0006" id="entity_UC1"><ellipse cx="222.7316" cy="533.6578" fill="#F1F1F1" rx="39.7316" ry="14.659" style="stroke:#181818;stroke-width:0.5;"/><text fill="#000000" font-family="sans-serif" font-size="14" lengthAdjust="spacing" textLength="51.9463" x="196.7584" y="538.402">Sign Up</text></g><!--entity UC2--><g class="entity" data-entity="UC2" data-source-line="18" data-uid="ent0007" id="entity_UC2"><ellipse cx="222.6598" cy="168.6578" fill="#F1F1F1" rx="32.6598" ry="14.659" style="stroke:#181818;stroke-width:0.5;"/><text fill="#000000" font-family="sans-serif" font-size="14" lengthAdjust="spacing" textLength="41.9453" x="201.6872" y="173.402">Log In</text></g><!--entity UC3--><g class="entity" data-entity="UC3" data-source-line="19" data-uid="ent0008" id="entity_UC3"><ellipse cx="584.8218" cy="844.5632" fill="#F1F1F1" rx="90.8218" ry="20.5644" style="stroke:#181818;stroke-width:0.5;"/><text fill="#000000" font-family="sans-serif" font-size="14" lengthAdjust="spacing" textLength="155.0938" x="507.2749" y="849.3073">Complete Profile Setup</text></g><!--entity UC4--><g class="entity" data-entity="UC4" data-source-line="20" data-uid="ent0009" id="entity_UC4"><ellipse cx="222.701" cy="580.6578" fill="#F1F1F1" rx="41.201" ry="14.659" style="stroke:#181818;stroke-width:0.5;"/><text fill="#000000" font-family="sans-serif" font-size="14" lengthAdjust="spacing" textLength="54.0244" x="195.6888" y="585.402">Log Out</text></g><!--entity UC5--><g class="entity" data-entity="UC5" data-source-line="23" data-uid="ent0010" id="entity_UC5"><ellipse cx="222.2742" cy="627.6578" fill="#F1F1F1" rx="54.7742" ry="14.659" style="stroke:#181818;stroke-width:0.5;"/><text fill="#000000" font-family="sans-serif" font-size="14" lengthAdjust="spacing" textLength="73.2197" x="185.6643" y="632.402">Edit Profile</text></g><!--entity UC6--><g class="entity" data-entity="UC6" data-source-line="24" data-uid="ent0011" id="entity_UC6"><ellipse cx="222.429" cy="679.6846" fill="#F1F1F1" rx="83.929" ry="19.1858" style="stroke:#181818;stroke-width:0.5;"/><text fill="#000000" font-family="sans-serif" font-size="14" lengthAdjust="spacing" textLength="139.2891" x="152.7845" y="684.4288">Toggle Donor Status</text></g><!--entity UC7--><g class="entity" data-entity="UC7" data-source-line="25" data-uid="ent0012" id="entity_UC7"><ellipse cx="869.1803" cy="844.3349" fill="#F1F1F1" rx="84.6803" ry="19.3361" style="stroke:#181818;stroke-width:0.5;"/><text fill="#000000" font-family="sans-serif" font-size="14" lengthAdjust="spacing" textLength="141.0322" x="798.6642" y="849.079">Upload Profile Image</text></g><!--entity UC8--><g class="entity" data-entity="UC8" data-source-line="28" data-uid="ent0013" id="entity_UC8"><ellipse cx="222.5196" cy="736.7028" fill="#F1F1F1" rx="86.5196" ry="19.7039" style="stroke:#181818;stroke-width:0.5;"/><text fill="#000000" font-family="sans-serif" font-size="14" lengthAdjust="spacing" textLength="145.2773" x="149.8809" y="741.4469">Create Blood Request</text></g><!--entity UC9--><g class="entity" data-entity="UC9" data-source-line="29" data-uid="ent0014" id="entity_UC9"><ellipse cx="222.3294" cy="793.2647" fill="#F1F1F1" rx="84.3294" ry="19.2659" style="stroke:#181818;stroke-width:0.5;"/><text fill="#000000" font-family="sans-serif" font-size="14" lengthAdjust="spacing" textLength="140.2188" x="152.22" y="798.0089">View Blood Requests</text></g><!--entity UC10--><g class="entity" data-entity="UC10" data-source-line="30" data-uid="ent0015" id="entity_UC10"><ellipse cx="222.3965" cy="851.4781" fill="#F1F1F1" rx="90.3965" ry="20.4793" style="stroke:#181818;stroke-width:0.5;"/><text fill="#000000" font-family="sans-serif" font-size="14" lengthAdjust="spacing" textLength="154.1299" x="145.3316" y="856.2223">Search by Blood Group</text></g><!--entity UC11--><g class="entity" data-entity="UC11" data-source-line="31" data-uid="ent0016" id="entity_UC11"><ellipse cx="584.8633" cy="903.3715" fill="#F1F1F1" rx="84.8633" ry="19.3727" style="stroke:#181818;stroke-width:0.5;"/><text fill="#000000" font-family="sans-serif" font-size="14" lengthAdjust="spacing" textLength="141.4561" x="514.1353" y="908.1156">View Request Details</text></g><!--entity UC12--><g class="entity" data-entity="UC12" data-source-line="32" data-uid="ent0017" id="entity_UC12"><ellipse cx="222.4609" cy="907.391" fill="#F1F1F1" rx="72.4609" ry="16.8922" style="stroke:#181818;stroke-width:0.5;"/><text fill="#000000" font-family="sans-serif" font-size="14" lengthAdjust="spacing" textLength="111.8154" x="166.5532" y="912.1352">Dismiss Request</text></g><!--entity UC13--><g class="entity" data-entity="UC13" data-source-line="35" data-uid="ent0018" id="entity_UC13"><ellipse cx="222.658" cy="217.3304" fill="#F1F1F1" rx="67.158" ry="15.8316" style="stroke:#181818;stroke-width:0.5;"/><text fill="#000000" font-family="sans-serif" font-size="14" lengthAdjust="spacing" textLength="98.3281" x="173.494" y="222.0746">Search Donors</text></g><!--entity UC14--><g class="entity" data-entity="UC14" data-source-line="38" data-uid="ent0019" id="entity_UC14"><ellipse cx="869.1435" cy="903.7275" fill="#F1F1F1" rx="94.1435" ry="21.2287" style="stroke:#181818;stroke-width:0.5;"/><text fill="#000000" font-family="sans-serif" font-size="14" lengthAdjust="spacing" textLength="162.5791" x="787.8539" y="908.4717">Send / Receive Message</text></g><!--entity UC15--><g class="entity" data-entity="UC15" data-source-line="39" data-uid="ent0020" id="entity_UC15"><ellipse cx="222.3065" cy="270.3601" fill="#F1F1F1" rx="79.8065" ry="18.3613" style="stroke:#181818;stroke-width:0.5;"/><text fill="#000000" font-family="sans-serif" font-size="14" lengthAdjust="spacing" textLength="129.6162" x="157.4984" y="275.1043">View Inbox / Chats</text></g><!--entity UC16--><g class="entity" data-entity="UC16" data-source-line="42" data-uid="ent0021" id="entity_UC16"><ellipse cx="1143.6814" cy="484.7351" fill="#F1F1F1" rx="81.6814" ry="18.7363" style="stroke:#181818;stroke-width:0.5;"/><text fill="#000000" font-family="sans-serif" font-size="14" lengthAdjust="spacing" textLength="134.0391" x="1076.6619" y="489.4793">Receive Notification</text></g><!--entity UC17--><g class="entity" data-entity="UC17" data-source-line="43" data-uid="ent0022" id="entity_UC17"><ellipse cx="222.724" cy="324.7436" fill="#F1F1F1" rx="76.724" ry="17.7448" style="stroke:#181818;stroke-width:0.5;"/><text fill="#000000" font-family="sans-serif" font-size="14" lengthAdjust="spacing" textLength="122.2471" x="161.6005" y="329.4878">View Notifications</text></g><!--entity UC18--><g class="entity" data-entity="UC18" data-source-line="46" data-uid="ent0023" id="entity_UC18"><ellipse cx="222.3921" cy="377.4773" fill="#F1F1F1" rx="75.3921" ry="17.4784" style="stroke:#181818;stroke-width:0.5;"/><text fill="#000000" font-family="sans-serif" font-size="14" lengthAdjust="spacing" textLength="119.0205" x="162.8818" y="382.2214">View Ambulances</text></g><!--entity UC19--><g class="entity" data-entity="UC19" data-source-line="47" data-uid="ent0024" id="entity_UC19"><ellipse cx="222.5954" cy="431.5179" fill="#F1F1F1" rx="80.5954" ry="18.5191" style="stroke:#181818;stroke-width:0.5;"/><text fill="#000000" font-family="sans-serif" font-size="14" lengthAdjust="spacing" textLength="131.4824" x="156.8542" y="436.2621">View Organizations</text></g><!--entity UC20--><g class="entity" data-entity="UC20" data-source-line="48" data-uid="ent0025" id="entity_UC20"><ellipse cx="222.3708" cy="484.673" fill="#F1F1F1" rx="71.3708" ry="16.6742" style="stroke:#181818;stroke-width:0.5;"/><text fill="#000000" font-family="sans-serif" font-size="14" lengthAdjust="spacing" textLength="109.0947" x="167.8234" y="489.4171">View Volunteers</text></g><!--entity UC21--><g class="entity" data-entity="UC21" data-source-line="51" data-uid="ent0026" id="entity_UC21"><ellipse cx="222.7233" cy="57.7435" fill="#F1F1F1" rx="84.2233" ry="19.2447" style="stroke:#181818;stroke-width:0.5;"/><text fill="#000000" font-family="sans-serif" font-size="14" lengthAdjust="spacing" textLength="139.9727" x="152.737" y="62.4876">Manage Ambulances</text></g><!--entity UC22--><g class="entity" data-entity="UC22" data-source-line="52" data-uid="ent0027" id="entity_UC22"><ellipse cx="222.65" cy="115.3288" fill="#F1F1F1" rx="89.65" ry="20.33" style="stroke:#181818;stroke-width:0.5;"/><text fill="#000000" font-family="sans-serif" font-size="14" lengthAdjust="spacing" textLength="152.4346" x="146.4327" y="120.073">Manage Organizations</text></g><!--entity UC23--><g class="entity" data-entity="UC23" data-source-line="53" data-uid="ent0028" id="entity_UC23"><ellipse cx="222.4883" cy="1.3965" fill="#F1F1F1" rx="79.9883" ry="18.3977" style="stroke:#181818;stroke-width:0.5;"/><text fill="#000000" font-family="sans-serif" font-size="14" lengthAdjust="spacing" textLength="130.0469" x="157.4648" y="6.1406">Manage Volunteers</text></g><g class="link" data-entity-1="User" data-entity-2="UC1" data-uid="lnk29" id="link_User_UC1"><polygon fill="#181818" points="182.7461,538.2326,173.1685,535.937,177.8296,539.1424,174.6242,543.8035,182.7461,538.2326" style="stroke:#181818;stroke-width:1;"/><path d="M84.1936,588.7986 C95.7151,577.2461 109.4502,565.5347 124,557.4988 C142.0064,547.5539 158.2285,542.7696 176.8463,539.3244" fill="none" style="stroke:#181818;stroke-width:1;"/></g><g class="link" data-entity-1="User" data-entity-2="UC2" data-uid="lnk30" id="link_User_UC2"><polygon fill="#181818" points="189.599,168.065,180.3459,164.6914,184.6107,168.4077,180.8944,172.6726,189.599,168.065" style="stroke:#181818;stroke-width:1;"/><path d="M52.4868,588.9368 C55.7548,493.2726 69.3836,248.7182 124,192.4988 C140.8843,175.119 162.1919,169.9483 183.6131,168.4763" fill="none" style="stroke:#181818;stroke-width:1;"/></g><g class="link" data-entity-1="User" data-entity-2="UC3" data-uid="lnk31" id="link_User_UC3"><polygon fill="#181818" points="518.9232,865.0233,509.0894,864.4801,514.2491,866.7989,511.9303,871.9587,518.9232,865.0233" style="stroke:#181818;stroke-width:1;"/><path d="M54.8034,666.0042 C62.0879,740.6289 82.2996,900.524 124,933.4988 C185.9015,982.4478 403.7708,918.2911 476,886.4988 C484.5811,882.7218 485.518,879.4934 494,875.4988 C501.924,871.7671 504.8156,870.3825 513.3143,867.154" fill="none" style="stroke:#181818;stroke-width:1;"/></g><g class="link" data-entity-1="User" data-entity-2="UC4" data-uid="lnk32" id="link_User_UC4"><polygon fill="#181818" points="181.497,589.7175,171.8128,587.9244,176.6346,590.8824,173.6766,595.7043,181.497,589.7175" style="stroke:#181818;stroke-width:1;"/><path d="M95.0656,613.1664 C104.5673,610.1839 114.5935,607.1455 124,604.4988 C142.7945,599.2107 157.971,595.3538 175.6621,591.1154" fill="none" style="stroke:#181818;stroke-width:1;"/></g><g class="link" data-entity-1="User" data-entity-2="UC5" data-uid="lnk33" id="link_User_UC5"><polygon fill="#181818" points="167.2234,627.4988,158.2234,623.4988,162.2234,627.4988,158.2234,631.4988,167.2234,627.4988" style="stroke:#181818;stroke-width:1;"/><path d="M95.2792,627.4988 C117.2176,627.4988 137.9898,627.4988 161.2234,627.4988" fill="none" style="stroke:#181818;stroke-width:1;"/></g><g class="link" data-entity-1="User" data-entity-2="UC6" data-uid="lnk34" id="link_User_UC6"><polygon fill="#181818" points="153.9979,660.4939,146.4826,654.1283,149.1989,659.0903,144.2369,661.8067,153.9979,660.4939" style="stroke:#181818;stroke-width:1;"/><path d="M95.1147,642.2504 C104.6133,645.3753 114.6259,648.6025 124,651.4988 C133.6752,654.4882 138.1642,655.863 148.2391,658.8096" fill="none" style="stroke:#181818;stroke-width:1;"/></g><g class="link" data-entity-1="User" data-entity-2="UC7" data-uid="lnk35" id="link_User_UC7"><polygon fill="#181818" points="789.0114,864.06,779.1981,864.8958,784.6311,866.4711,783.0558,871.9042,789.0114,864.06" style="stroke:#181818;stroke-width:1;"/><path d="M53.0039,666.1898 C57.271,752.7907 72.6935,957.9103 124,999.4988 C234.4235,1089.0071 647.7066,998.3836 757,907.4988 C770.1466,896.5666 761.8468,884.4231 775,873.4988 C779.2935,869.933 778.7691,869.6978 783.7551,866.9533" fill="none" style="stroke:#181818;stroke-width:1;"/></g><g class="link" data-entity-1="User" data-entity-2="UC8" data-uid="lnk36" id="link_User_UC8"><polygon fill="#181818" points="141.9119,716.8936,135.284,709.6087,137.3351,714.8806,132.0632,716.9316,141.9119,716.8936" style="stroke:#181818;stroke-width:1;"/><path d="M79.3415,666.396 C91.5768,681.0858 107.027,696.8145 124,707.4988 C129.6045,711.0268 130.167,711.7278 136.4197,714.478" fill="none" style="stroke:#181818;stroke-width:1;"/></g><g class="link" data-entity-1="User" data-entity-2="UC9" data-uid="lnk37" id="link_User_UC9"><polygon fill="#181818" points="137.7539,774.6196,131.7531,766.81,133.3598,772.2339,127.9359,773.8406,137.7539,774.6196" style="stroke:#181818;stroke-width:1;"/><path d="M62.4126,666.0137 C73.1699,697.1802 92.6252,739.9524 124,765.4988 C128.2336,768.946 127.5986,769.106 132.481,771.7568" fill="none" style="stroke:#181818;stroke-width:1;"/></g><g class="link" data-entity-1="User" data-entity-2="UC10" data-uid="lnk38" id="link_User_UC10"><polygon fill="#181818" points="134.9334,830.9305,129.5085,822.7104,130.7218,828.2356,125.1966,829.449,134.9334,830.9305" style="stroke:#181818;stroke-width:1;"/><path d="M55.6011,666.0903 C62.3093,710.0236 79.6836,781.0504 124,822.4988 C127.3534,825.6353 125.9775,825.1998 129.8795,827.6967" fill="none" style="stroke:#181818;stroke-width:1;"/></g><g class="link" data-entity-1="User" data-entity-2="UC11" data-uid="lnk39" id="link_User_UC11"><polygon fill="#181818" points="546.2656,923.0087,536.4213,923.3076,541.7603,925.1771,539.8908,930.5161,546.2656,923.0087" style="stroke:#181818;stroke-width:1;"/><path d="M53.745,666.113 C59.2945,745.4123 76.8011,921.9216 124,954.4988 C256.0913,1045.6697 456.7018,966.1161 540.8592,925.6108" fill="none" style="stroke:#181818;stroke-width:1;"/></g><g class="link" data-entity-1="User" data-entity-2="UC12" data-uid="lnk40" id="link_User_UC12"><polygon fill="#181818" points="149.7522,897.6789,142.8904,890.6138,145.1122,895.8161,139.9099,898.0378,149.7522,897.6789" style="stroke:#181818;stroke-width:1;"/><path d="M51.3086,666.068 C53.2001,721.5724 65.1251,823.6417 124,881.4988 C131.2471,888.6207 134.6471,891.6147 144.1842,895.4435" fill="none" style="stroke:#181818;stroke-width:1;"/></g><g class="link" data-entity-1="User" data-entity-2="UC13" data-uid="lnk41" id="link_User_UC13"><polygon fill="#181818" points="155.4354,223.7475,145.6362,222.7603,150.6858,225.31,148.1362,230.3597,155.4354,223.7475" style="stroke:#181818;stroke-width:1;"/><path d="M53.602,588.7036 C59.1379,501.1924 77.0637,292.192 124,242.4988 C132.4593,233.5426 137.9543,229.4983 149.7359,225.6225" fill="none" style="stroke:#181818;stroke-width:1;"/></g><g class="link" data-entity-1="User" data-entity-2="UC14" data-uid="lnk42" id="link_User_UC14"><polygon fill="#181818" points="836.6215,924.5802,826.8914,926.1048,832.4219,927.2937,831.233,932.8242,836.6215,924.5802" style="stroke:#181818;stroke-width:1;"/><path d="M52.0826,666.2363 C54.4097,759.7499 66.0267,993.5271 124,1039.4988 C347.0029,1216.3358 720.6909,999.4866 831.582,927.8364" fill="none" style="stroke:#181818;stroke-width:1;"/></g><g class="link" data-entity-1="User" data-entity-2="UC15" data-uid="lnk43" id="link_User_UC15"><polygon fill="#181818" points="142.1167,284.0834,132.289,284.7272,137.6902,286.4084,136.009,291.8097,142.1167,284.0834" style="stroke:#181818;stroke-width:1;"/><path d="M55.035,588.7884 C62.9136,510.9361 84.4116,339.2804 124,297.4988 C129.1947,292.0164 130.0832,290.404 136.8049,286.8734" fill="none" style="stroke:#181818;stroke-width:1;"/></g><g class="link" data-entity-1="User" data-entity-2="UC17" data-uid="lnk44" id="link_User_UC17"><polygon fill="#181818" points="145.7091,335.8513,135.8607,335.9421,141.159,337.9241,139.1771,343.2224,145.7091,335.8513" style="stroke:#181818;stroke-width:1;"/><path d="M56.7496,588.968 C66.7603,521.0585 90.5965,384.0567 124,350.4988 C130.1795,344.2908 132.2042,342.0033 140.249,338.3386" fill="none" style="stroke:#181818;stroke-width:1;"/></g><g class="link" data-entity-1="User" data-entity-2="UC18" data-uid="lnk45" id="link_User_UC18"><polygon fill="#181818" points="146.5349,388.9834,136.6861,388.9353,141.9559,390.9918,139.8995,396.2616,146.5349,388.9834" style="stroke:#181818;stroke-width:1;"/><path d="M53.1335,588.7735 C57.3701,538.8377 72.2598,452.5956 124,403.4988 C130.481,397.3489 132.7546,395.0275 141.0402,391.3934" fill="none" style="stroke:#181818;stroke-width:1;"/></g><g class="link" data-entity-1="User" data-entity-2="UC19" data-uid="lnk46" id="link_User_UC19"><polygon fill="#181818" points="141.6993,446.8575,131.86,447.2916,137.2242,449.0876,135.4282,454.4518,141.6993,446.8575" style="stroke:#181818;stroke-width:1;"/><path d="M58.0471,588.9205 C66.5897,550.4356 85.2836,492.3088 124,458.4988 C129.2919,453.8776 129.9403,452.7174 136.3292,449.5336" fill="none" style="stroke:#181818;stroke-width:1;"/></g><g class="link" data-entity-1="User" data-entity-2="UC20" data-uid="lnk47" id="link_User_UC20"><polygon fill="#181818" points="150.8806,495.6157,141.0575,494.9029,146.1765,497.3104,143.7691,502.4294,150.8806,495.6157" style="stroke:#181818;stroke-width:1;"/><path d="M66.1065,588.7969 C77.9026,562.6566 97.0054,529.4063 124,509.4988 C132.0164,503.587 135.6519,501.1021 145.2357,497.6493" fill="none" style="stroke:#181818;stroke-width:1;"/></g><g class="link" data-entity-1="Admin" data-entity-2="UC2" data-uid="lnk48" id="link_Admin_UC2"><polygon fill="#181818" points="189.5913,164.1616,181.4355,158.6404,184.6693,163.2818,180.0279,166.5156,189.5913,164.1616" style="stroke:#181818;stroke-width:1;"/><path d="M78.1925,112.9794 C91.1399,124.1045 107.451,136.4267 124,144.4988 C144.6816,154.5867 164.0511,159.5966 183.6849,163.1059" fill="none" style="stroke:#181818;stroke-width:1;"/></g><g class="link" data-entity-1="Admin" data-entity-2="UC21" data-uid="lnk49" id="link_Admin_UC21"><polygon fill="#181818" points="138.492,72.1473,128.9338,69.7722,133.5681,73.0162,130.3241,77.6505,138.492,72.1473" style="stroke:#181818;stroke-width:1;"/><path d="M78.0625,82.8113 C94.498,79.9109 110.6746,77.0563 132.5833,73.19" fill="none" style="stroke:#181818;stroke-width:1;"/></g><g class="link" data-entity-1="Admin" data-entity-2="UC22" data-uid="lnk50" id="link_Admin_UC22"><polygon fill="#181818" points="132.8901,100.9043,124.6598,95.4948,127.9566,100.0917,123.3597,103.3884,132.8901,100.9043" style="stroke:#181818;stroke-width:1;"/><path d="M78.0625,91.8738 C93.0973,94.3502 106.9396,96.6301 126.9699,99.9292" fill="none" style="stroke:#181818;stroke-width:1;"/></g><g class="link" data-entity-1="Admin" data-entity-2="UC23" data-uid="lnk51" id="link_Admin_UC23"><polygon fill="#181818" points="145.5554,20.075,135.7252,19.47,140.8703,21.8212,138.5191,26.9663,145.5554,20.075" style="stroke:#181818;stroke-width:1;"/><path d="M78.2681,61.8443 C91.2314,50.5816 107.534,38.0126 124,29.4988 C130.8051,25.9803 132.4904,24.9444 139.9332,22.1704" fill="none" style="stroke:#181818;stroke-width:1;"/></g><g class="link" data-entity-1="UC1" data-entity-2="System" data-uid="lnk52" id="link_UC1_System"><polygon fill="#181818" points="541.2816,-89.7929,531.4634,-89.0169,536.8867,-87.4085,535.2784,-81.9851,541.2816,-89.7929" style="stroke:#181818;stroke-width:1;"/><path d="M262.1851,530.5455 C279.3747,527.4972 298.8706,521.4411 313,509.4988 C445.9052,397.166 431.4104,321.7077 476,153.4988 C487.5477,109.9367 470.8412,-9.8401 494,-48.5012 C504.849,-66.6123 518.3821,-77.369 536.0078,-86.9316" fill="none" style="stroke:#181818;stroke-width:1;stroke-dasharray:7,7;"/><text fill="#000000" font-family="sans-serif" font-size="13" lengthAdjust="spacing" textLength="141.521" x="333" y="149.0672">&#171;include&#187; authenticate</text></g><g class="link" data-entity-1="UC2" data-entity-2="System" data-uid="lnk53" id="link_UC2_System"><polygon fill="#181818" points="541.3163,-82.4467,531.5745,-80.9983,537.0955,-79.7661,535.8633,-74.2451,541.3163,-82.4467" style="stroke:#181818;stroke-width:1;"/><path d="M255.0017,164.4354 C272.9606,161.081 295.3356,155.081 313,144.4988 C413.8804,84.0648 403.9712,27.1556 494,-48.5012 C508.5893,-60.7615 520.7756,-69.4016 536.2514,-79.23" fill="none" style="stroke:#181818;stroke-width:1;stroke-dasharray:7,7;"/><text fill="#000000" font-family="sans-serif" font-size="13" lengthAdjust="spacing" textLength="141.521" x="333" y="-34.9328">&#171;include&#187; authenticate</text></g><g class="link" data-entity-1="UC14" data-entity-2="UC16" data-uid="lnk54" id="link_UC14_UC16"><polygon fill="#181818" points="1139.3707,503.074,1133.8067,511.2006,1138.465,507.9913,1141.6744,512.6496,1139.3707,503.074" style="stroke:#181818;stroke-width:1;"/><path d="M951.0057,882.2645 C955.2773,879.6714 959.3183,876.7623 963,873.4988 C1082.6674,767.4244 1126.8523,571.0463 1138.2839,508.9747" fill="none" style="stroke:#181818;stroke-width:1;stroke-dasharray:7,7;"/><text fill="#000000" font-family="sans-serif" font-size="13" lengthAdjust="spacing" textLength="59.3569" x="983" y="770.0672">&#171;include&#187;</text></g><g class="link" data-entity-1="System" data-entity-2="UC16" data-uid="lnk55" id="link_System_UC16"><polygon fill="#181818" points="1129.173,465.8887,1127.1344,456.2531,1126.2405,461.8389,1120.6547,460.945,1129.173,465.8887" style="stroke:#181818;stroke-width:1;"/><path d="M628.9147,-82.7168 C644.4155,-72.9176 661.6235,-61.0103 676,-48.5012 C879.6303,128.679 1073.5054,389.0099 1125.654,461.0289" fill="none" style="stroke:#181818;stroke-width:1;"/></g><g class="link" data-entity-1="UC1" data-entity-2="UC3" data-uid="lnk56" id="link_UC1_UC3"><polygon fill="#181818" points="570.6414,823.8251,568.9741,814.1184,567.8665,819.6657,562.3192,818.5581,570.6414,823.8251" style="stroke:#181818;stroke-width:1;"/><path d="M262.3545,539.0684 C278.8032,542.6209 297.666,548.3483 313,557.4988 C433.9314,629.665 532.009,765.9172 567.3116,818.8339" fill="none" style="stroke:#181818;stroke-width:1;stroke-dasharray:7,7;"/><text fill="#000000" font-family="sans-serif" font-size="13" lengthAdjust="spacing" textLength="59.3569" x="374" y="570.0672">&#171;include&#187;</text></g><g class="link" data-entity-1="UC3" data-entity-2="UC7" data-uid="lnk57" id="link_UC3_UC7"><polygon fill="#181818" points="784.12,844.4988,775.12,840.4988,779.12,844.4988,775.12,848.4988,784.12,844.4988" style="stroke:#181818;stroke-width:1;"/><path d="M676.0019,844.4988 C710.6577,844.4988 744.064,844.4988 778.12,844.4988" fill="none" style="stroke:#181818;stroke-width:1;stroke-dasharray:7,7;"/><text fill="#000000" font-family="sans-serif" font-size="13" lengthAdjust="spacing" textLength="59.3569" x="696" y="840.0672">&#171;include&#187;</text></g><g class="link" data-entity-1="UC9" data-entity-2="UC11" data-uid="lnk58" id="link_UC9_UC11"><polygon fill="#181818" points="499.8498,888.8783,491.8742,883.0999,494.9584,887.842,490.2163,890.9262,499.8498,888.8783" style="stroke:#181818;stroke-width:1;"/><path d="M291.8423,813.165 C299.1169,815.9863 306.2993,819.1 313,822.4988 C321.8008,826.9629 322.0887,831.2596 331,835.4988 C384.5989,860.9964 443.4272,876.9255 493.9801,887.6348" fill="none" style="stroke:#181818;stroke-width:1;stroke-dasharray:7,7;"/><text fill="#000000" font-family="sans-serif" font-size="13" lengthAdjust="spacing" textLength="57.1924" x="375" y="831.0672">&#171;extend&#187;</text></g><g class="link" data-entity-1="UC11" data-entity-2="UC14" data-uid="lnk59" id="link_UC11_UC14"><polygon fill="#181818" points="774.8437,903.4988,765.8437,899.4988,769.8437,903.4988,765.8437,907.4988,774.8437,903.4988" style="stroke:#181818;stroke-width:1;"/><path d="M670.2273,903.4988 C703.1735,903.4988 735.0843,903.4988 768.8437,903.4988" fill="none" style="stroke:#181818;stroke-width:1;stroke-dasharray:7,7;"/><text fill="#000000" font-family="sans-serif" font-size="13" lengthAdjust="spacing" textLength="57.1924" x="697" y="899.0672">&#171;extend&#187;</text></g><!--SRC=[ZLLDSzem4BtxLsnzQNB8Xu2GqCamGqdJoKpITA3ar8km5wE9BRcIt2JjzBzNbcsGB3fJBh1wZxTFk-lrkrBIhA2GqpTHQL05QiffbED6WnOWMRRLa3A9YMQ2H-gPyP9AMa19asUQuLA_vGWrJ7cMeqEWYHQoWUaBAb5W5DapY6y4Drzdi58eOw3A_kZ0MLem7aFxCQ0zwD1ROsLD5NxdHxDARut8xVpXs8eitvJ60gwlbVqndKRHpXV4zso3SC_uCtpCXKZ1UA3rbM1MbZ7yZYA0zt1YFb3h8jSiQV3wp82LmiJaXNZ9CWwhSkSG7AkhEN6fzoA3Enuo6-h0fSv5KUQe4RvAiM76y19rLIUnr65VzR7I_p0mScxIQPr1K_7-LJwbJ7UaE52wSAdVH5QNiT5PQgeh5U-fOvUwAdD1qrtokyACIRoZNZh-cauiy4U5Igl0tbmYDHNnM7kXAvVwnF2b9-VOctZzGogJBQpVMlvdAMoXs_wT1xAj8DoOHuFbQk-0UCs-OQfWIdb6dRaOEFUsLGplspfhq3YOhA6Zy81AqOpnx808Jqt35vWW-uaj4Rj18gFWUdTyBLxDF-PRsXMjvLuu2Ry8pJRj8n4wxxAvBATEuo2f9-SbTUTZOTP69HDKS6H68JqEybgjMR6kSieDhL_pS4GUPKOv-tKWxoJWFecyuXfHzdK7v-wsgBSJ56PfPbYOjH5uVB3G0PUD5Zd03LqstC41RkYouGwZFr7KUgpNgpbM8c5k0-tnoSdKhYqd6BZ1q0r6Rd3X1cCtk7I3ApUOU4dFlSZpG3mJn7D1F1l4yq6ytCHBJhpiTHUz7de5EgBsZ2cWkH90wxhBTW0RUbShBo9-s4E7kupjk-f0J-O4uFHqsZ4-cFSPuqbUfJYT0js_cj1G1_zF9IDBhHz6Co8UDMh_tnPfl3EvmBonjcMbWZNg5qHU5mBg2UmRDgFI5xP73NOPOfCE8yHY-AhDxhAGEMcXaG_z1G00]--></g></svg>